<?xml version="1.0" encoding="UTF-8" standalone="no"?><svg xmlns="http://www.w3.org/2000/svg" xmlns:xlink="http://www.w3.org/1999/xlink" contentStyleType="text/css" height="649px" preserveAspectRatio="none" style="width:1618px;height:649px;background:#FFFFFF;" version="1.1" viewBox="0 0 1618 649" width="1618px" zoomAndPan="magnify"><defs/><g><!--MD5=[78ae593cbc5ccb3b62770b4c95cd1868]
cluster NODES--><g id="cluster_NODES"><path d="M8.5,6 L211.5,6 A3.75,3.75 0 0 1 214,8.5 L221,29.6094 L1608.5,29.6094 A2.5,2.5 0 0 1 1611,32.1094 L1611,639.5 A2.5,2.5 0 0 1 1608.5,642 L8.5,642 A2.5,2.5 0 0 1 6,639.5 L6,8.5 A2.5,2.5 0 0 1 8.5,6 " style="stroke:#000000;stroke-width:1.5;fill:none;"/><line style="stroke:#000000;stroke-width:1.5;fill:none;" x1="6" x2="221" y1="29.6094" y2="29.6094"/><text fill="#000000" font-family="sans-serif" font-size="14" font-weight="bold" lengthAdjust="spacing" textLength="202" x="10" y="22.5332">eCTD Folder 3.2.S.1.0 Bundle</text></g><!--MD5=[ff7c9c75059bda165047872c8860bc56]
cluster N21--><g id="cluster_N21"><polygon points="429,206,439,196,706,196,706,484,696,494,429,494,429,206" style="stroke:#181818;stroke-width:1.0;fill:none;"/><line style="stroke:#181818;stroke-width:1.0;fill:none;" x1="696" x2="706" y1="206" y2="196"/><line style="stroke:#181818;stroke-width:1.0;fill:none;" x1="429" x2="696" y1="206" y2="206"/><line style="stroke:#181818;stroke-width:1.0;fill:none;" x1="696" x2="696" y1="206" y2="494"/><text fill="#000000" font-family="sans-serif" font-size="14" font-weight="bold" lengthAdjust="spacing" textLength="174" x="476.5" y="223.5332">DrugSubstanceStructure</text></g><!--MD5=[3ac0ab816bd3ac1407bf1ea9f71e3a06]
cluster N1--><g id="cluster_N1"><polygon points="38,68,48,58,389,58,389,315,379,325,38,325,38,68" style="stroke:#181818;stroke-width:1.0;fill:none;"/><line style="stroke:#181818;stroke-width:1.0;fill:none;" x1="379" x2="389" y1="68" y2="58"/><line style="stroke:#181818;stroke-width:1.0;fill:none;" x1="38" x2="379" y1="68" y2="68"/><line style="stroke:#181818;stroke-width:1.0;fill:none;" x1="379" x2="379" y1="68" y2="325"/><text fill="#000000" font-family="sans-serif" font-size="14" font-weight="bold" lengthAdjust="spacing" textLength="160" x="129.5" y="85.5332">EctdComposition32P10</text></g><!--MD5=[5c7336265f69d5ff067abffd6309c1e3]
cluster NN--><g id="cluster_NN"><polygon points="746,206,756,196,1262,196,1262,484.5,1252,494.5,746,494.5,746,206" style="stroke:#181818;stroke-width:1.0;fill:none;"/><line style="stroke:#181818;stroke-width:1.0;fill:none;" x1="1252" x2="1262" y1="206" y2="196"/><line style="stroke:#181818;stroke-width:1.0;fill:none;" x1="746" x2="1252" y1="206" y2="206"/><line style="stroke:#181818;stroke-width:1.0;fill:none;" x1="1252" x2="1252" y1="206" y2="494.5"/><text fill="#000000" font-family="sans-serif" font-size="14" font-weight="bold" lengthAdjust="spacing" textLength="206" x="897" y="223.5332">DrugSubstanceNomenclature</text></g><!--MD5=[0133f043c69789dc4cd58214554b94f1]
cluster N2--><g id="cluster_N2"><polygon points="1302,375,1312,365,1579,365,1579,600,1569,610,1302,610,1302,375" style="stroke:#181818;stroke-width:1.0;fill:none;"/><line style="stroke:#181818;stroke-width:1.0;fill:none;" x1="1569" x2="1579" y1="375" y2="365"/><line style="stroke:#181818;stroke-width:1.0;fill:none;" x1="1302" x2="1569" y1="375" y2="375"/><line style="stroke:#181818;stroke-width:1.0;fill:none;" x1="1569" x2="1569" y1="375" y2="610"/><text fill="#000000" font-family="sans-serif" font-size="14" font-weight="bold" lengthAdjust="spacing" textLength="122" x="1375.5" y="392.5332">PolymorphicForm</text></g><g id="elem_obj22"><rect fill="#F1F1F1" height="64.8281" style="stroke:#181818;stroke-width:0.5;" width="210" x="472" y="245"/><text fill="#000000" font-family="sans-serif" font-size="14" lengthAdjust="spacing" textLength="192" x="481" y="261.5332">Parent: DrugSubstance Profile</text><line style="stroke:#181818;stroke-width:0.5;" x1="473" x2="681" y1="266.6094" y2="266.6094"/><text fill="#000000" font-family="sans-serif" font-size="14" font-weight="bold" lengthAdjust="spacing" textLength="74" x="478" y="285.1426">ValueSets:</text><text fill="#000000" font-family="sans-serif" font-size="14" lengthAdjust="spacing" textLength="198" x="478" y="302.752">EVMPDSubstanceClassification</text></g><g id="elem_obj64"><rect fill="#F1F1F1" height="47.2188" style="stroke:#181818;stroke-width:0.5;" width="204" x="475" y="423"/><text fill="#000000" font-family="sans-serif" font-size="14" lengthAdjust="spacing" textLength="178" x="488" y="439.5332">Base64DocumentReference</text><line style="stroke:#181818;stroke-width:0.5;" x1="476" x2="678" y1="444.6094" y2="444.6094"/><text fill="#000000" font-family="sans-serif" font-size="14" font-weight="bold" lengthAdjust="spacing" textLength="50" x="481" y="463.1426">Parent:</text><text fill="#000000" font-family="sans-serif" font-size="14" lengthAdjust="spacing" textLength="138" x="535" y="463.1426">DocumentReferencee</text></g><g id="elem_obj1"><rect fill="#F1F1F1" height="64.8281" style="stroke:#181818;stroke-width:0.5;" width="284" x="62" y="107"/><text fill="#000000" font-family="sans-serif" font-size="14" lengthAdjust="spacing" textLength="128" x="140" y="123.5332">Parent: Composition</text><line style="stroke:#181818;stroke-width:0.5;" x1="63" x2="345" y1="128.6094" y2="128.6094"/><text fill="#000000" font-family="sans-serif" font-size="14" font-weight="bold" lengthAdjust="spacing" textLength="74" x="68" y="147.1426">ValueSets:</text><text fill="#000000" font-family="sans-serif" font-size="14" lengthAdjust="spacing" textLength="272" x="68" y="164.752">Code system PQCMC Comp Section Types</text></g><g id="elem_objAu"><rect fill="#F1F1F1" height="47.2188" style="stroke:#181818;stroke-width:0.5;" width="147" x="130.5" y="254"/><text fill="#000000" font-family="sans-serif" font-size="14" lengthAdjust="spacing" textLength="133" x="137.5" y="270.5332">SponsorOrganization</text><line style="stroke:#181818;stroke-width:0.5;" x1="131.5" x2="276.5" y1="275.6094" y2="275.6094"/><text fill="#000000" font-family="sans-serif" font-size="14" font-weight="bold" lengthAdjust="spacing" textLength="50" x="136.5" y="294.1426">Parent:</text><text fill="#000000" font-family="sans-serif" font-size="14" lengthAdjust="spacing" textLength="80" x="190.5" y="294.1426">Organization</text></g><g id="elem_obj3"><rect fill="#F1F1F1" height="64.8281" style="stroke:#181818;stroke-width:0.5;" width="210" x="1009" y="245"/><text fill="#000000" font-family="sans-serif" font-size="14" lengthAdjust="spacing" textLength="148" x="1040" y="261.5332">Parent: DrugSubstance</text><line style="stroke:#181818;stroke-width:0.5;" x1="1010" x2="1218" y1="266.6094" y2="266.6094"/><text fill="#000000" font-family="sans-serif" font-size="14" font-weight="bold" lengthAdjust="spacing" textLength="74" x="1015" y="285.1426">ValueSets:</text><text fill="#000000" font-family="sans-serif" font-size="14" lengthAdjust="spacing" textLength="198" x="1015" y="302.752">EVMPDSubstanceClassification</text></g><g id="elem_obj65"><rect fill="#F1F1F1" height="47.2188" style="stroke:#181818;stroke-width:0.5;" width="204" x="770" y="254"/><text fill="#000000" font-family="sans-serif" font-size="14" lengthAdjust="spacing" textLength="178" x="783" y="270.5332">Base64DocumentReference</text><line style="stroke:#181818;stroke-width:0.5;" x1="771" x2="973" y1="275.6094" y2="275.6094"/><text fill="#000000" font-family="sans-serif" font-size="14" font-weight="bold" lengthAdjust="spacing" textLength="50" x="776" y="294.1426">Parent:</text><text fill="#000000" font-family="sans-serif" font-size="14" lengthAdjust="spacing" textLength="138" x="830" y="294.1426">DocumentReferencee</text></g><!--MD5=[4b740f22a1c50b6a47d51262a726ab14]
class obj654--><g id="elem_obj654"><rect fill="#F1F1F1" height="48" id="obj654" rx="2.5" ry="2.5" style="stroke:#181818;stroke-width:0.5;" width="75" x="1076.5" y="422.5"/><ellipse cx="1091.5" cy="438.5" fill="#ADD1B2" rx="11" ry="11" style="stroke:#181818;stroke-width:1.0;"/><path d="M1094.2656,434.375 Q1094.4219,434.1563 1094.6094,434.0469 Q1094.7969,433.9375 1095.0156,433.9375 Q1095.3906,433.9375 1095.625,434.1953 Q1095.8594,434.4531 1095.8594,435.0625 L1095.8594,436.5156 Q1095.8594,437.125 1095.625,437.3906 Q1095.3906,437.6563 1095.0156,437.6563 Q1094.6719,437.6563 1094.4688,437.4531 Q1094.2656,437.2656 1094.1563,436.75 Q1094.1094,436.3906 1093.9219,436.2031 Q1093.5938,435.8281 1092.9844,435.6094 Q1092.375,435.3906 1091.75,435.3906 Q1090.9844,435.3906 1090.3516,435.7188 Q1089.7188,436.0469 1089.2266,436.7969 Q1088.7344,437.5469 1088.7344,438.5781 L1088.7344,439.6719 Q1088.7344,440.9063 1089.625,441.7266 Q1090.5156,442.5469 1092.1094,442.5469 Q1093.0469,442.5469 1093.7031,442.2969 Q1094.0938,442.1406 1094.5156,441.7031 Q1094.7813,441.4375 1094.9297,441.3594 Q1095.0781,441.2813 1095.2813,441.2813 Q1095.6094,441.2813 1095.8672,441.5391 Q1096.125,441.7969 1096.125,442.1406 Q1096.125,442.4844 1095.7813,442.8906 Q1095.2813,443.4688 1094.4844,443.7969 Q1093.4063,444.25 1092.1094,444.25 Q1090.5938,444.25 1089.3906,443.625 Q1088.4063,443.125 1087.7188,442.0547 Q1087.0313,440.9844 1087.0313,439.7031 L1087.0313,438.5469 Q1087.0313,437.2188 1087.6484,436.0703 Q1088.2656,434.9219 1089.3594,434.3047 Q1090.4531,433.6875 1091.6875,433.6875 Q1092.4219,433.6875 1093.0703,433.8516 Q1093.7188,434.0156 1094.2656,434.375 Z " fill="#000000"/><text fill="#000000" font-family="sans-serif" font-size="14" lengthAdjust="spacing" textLength="43" x="1105.5" y="444.2285">obj654</text><line style="stroke:#181818;stroke-width:0.5;" x1="1077.5" x2="1150.5" y1="454.5" y2="454.5"/><line style="stroke:#181818;stroke-width:0.5;" x1="1077.5" x2="1150.5" y1="462.5" y2="462.5"/></g><g id="elem_obj2"><rect fill="#F1F1F1" height="64.8281" style="stroke:#181818;stroke-width:0.5;" width="210" x="1345" y="414"/><text fill="#000000" font-family="sans-serif" font-size="14" lengthAdjust="spacing" textLength="176" x="1362" y="430.5332">Parent: SubstanceDefinition</text><line style="stroke:#181818;stroke-width:0.5;" x1="1346" x2="1554" y1="435.6094" y2="435.6094"/><text fill="#000000" font-family="sans-serif" font-size="14" font-weight="bold" lengthAdjust="spacing" textLength="74" x="1351" y="454.1426">ValueSets:</text><text fill="#000000" font-family="sans-serif" font-size="14" lengthAdjust="spacing" textLength="198" x="1351" y="471.752">EVMPDSubstanceClassification</text></g><g id="elem_obj664"><rect fill="#F1F1F1" height="47.2188" style="stroke:#181818;stroke-width:0.5;" width="204" x="1348" y="539"/><text fill="#000000" font-family="sans-serif" font-size="14" lengthAdjust="spacing" textLength="178" x="1361" y="555.5332">Base64DocumentReference</text><line style="stroke:#181818;stroke-width:0.5;" x1="1349" x2="1551" y1="560.6094" y2="560.6094"/><text fill="#000000" font-family="sans-serif" font-size="14" font-weight="bold" lengthAdjust="spacing" textLength="50" x="1354" y="579.1426">Parent:</text><text fill="#000000" font-family="sans-serif" font-size="14" lengthAdjust="spacing" textLength="138" x="1408" y="579.1426">DocumentReferencee</text></g><!--MD5=[878dda6960cdd49831121503d38d414c]
reverse link obj22 to obj64--><g id="link_obj22_obj64"><path codeLine="13" d="M577,323.41 C577,355.56 577,397.49 577,422.91 " fill="none" id="obj22-backto-obj64" style="stroke:#181818;stroke-width:1.0;"/><polygon fill="#181818" points="577,310.3,573,316.3,577,322.3,581,316.3,577,310.3" style="stroke:#181818;stroke-width:1.0;"/></g><!--MD5=[d1677cfa09d4827b222a2269ba865e4e]
reverse link obj1 to objAu--><g id="link_obj1_objAu"><path codeLine="23" d="M204,185.3 C204,208.17 204,235.01 204,253.62 " fill="none" id="obj1-backto-objAu" style="stroke:#181818;stroke-width:1.0;"/><polygon fill="#181818" points="204,172.04,200,178.04,204,184.04,208,178.04,204,172.04" style="stroke:#181818;stroke-width:1.0;"/></g><!--MD5=[64ea8e291c2799f8f7f7e76c0076162f]
reverse link obj3 to obj654--><g id="link_obj3_obj654"><path codeLine="35" d="M1114,323.33 C1114,355.28 1114,396.92 1114,422.41 " fill="none" id="obj3-backto-obj654" style="stroke:#181818;stroke-width:1.0;"/><polygon fill="#181818" points="1114,310.3,1110,316.3,1114,322.3,1118,316.3,1114,310.3" style="stroke:#181818;stroke-width:1.0;"/></g><!--MD5=[8260d50437ed348c6851101100ba5f2d]
reverse link obj2 to obj664--><g id="link_obj2_obj664"><path codeLine="47" d="M1450,492.26 C1450,508.26 1450,525.61 1450,538.94 " fill="none" id="obj2-backto-obj664" style="stroke:#181818;stroke-width:1.0;"/><polygon fill="#181818" points="1450,479.26,1446,485.26,1450,491.26,1454,485.26,1450,479.26" style="stroke:#181818;stroke-width:1.0;"/></g><!--MD5=[e36789cdf7dd983e422becacf7ea236d]
link N1 to N2--><g id="link_N1_N2"><path d="M389.3353,140.568 C389.6978,140.5712 390.0717,140.5745 390.4569,140.5779 C391.2272,140.5847 392.0425,140.5919 392.902,140.5996 C399.778,140.6614 409.4836,140.7533 421.6209,140.8803 C445.8956,141.1341 479.8974,141.5279 520.4448,142.1002 C601.5397,143.2447 708.8169,145.1031 816.8238,147.9838 C1032.8375,153.745 1251.77,163.595 1270,180 C1313.655,219.29 1324.0275,284.22 1323.3038,340.0337 C1323.2133,347.0105 1322.9494,353.8447 1322.5555,360.4687 C1322.5063,361.2967 1322.455,362.1214 1322.4018,362.9427 C1322.3752,363.3533 1322.3481,363.7631 1322.3205,364.172 " fill="none" id="N1-to-N2" style="stroke:#181818;stroke-width:1.0;"/><polygon fill="#181818" points="1322.3205,364.172,1326.9169,355.4615,1322.6569,359.1834,1318.9351,354.9233,1322.3205,364.172" style="stroke:#181818;stroke-width:1.0;"/></g><!--MD5=[5222e5acef12cad3659f2908e03a3fce]
link N1 to N21--><g id="link_N1_N21"><path d="M389.0643,160.0835 C389.1414,160.2708 389.2189,160.459 389.2968,160.6482 C389.6085,161.4052 389.9269,162.1782 390.2514,162.9663 C395.4441,175.5756 402.2281,192.05 409.0113,208.5225 C415.7944,224.995 422.5766,241.4656 427.7655,254.0675 C428.0898,254.8551 428.4079,255.6276 428.7193,256.3841 C428.7972,256.5732 428.8747,256.7613 428.9517,256.9484 " fill="none" id="N1-to-N21" style="stroke:#181818;stroke-width:1.0;"/><polygon fill="#181818" points="428.9517,256.9484,429.2238,247.1033,427.048,252.325,421.8263,250.1492,428.9517,256.9484" style="stroke:#181818;stroke-width:1.0;"/></g><!--MD5=[ea0f23757a340b9b23131ba728e25b79]
link N1 to NN--><g id="link_N1_NN"><path d="M390.0731,140.5996 C390.8125,140.6082 391.5951,140.6174 392.42,140.6271 C399.02,140.7048 408.336,140.819 419.9864,140.9729 C443.2874,141.2809 475.9264,141.748 514.8509,142.4011 C592.7,143.7072 695.6913,145.7569 799.405,148.7638 C1006.8325,154.7775 1217.15,164.62 1235,180 C1239.075,183.5113 1242.4348,187.6195 1245.1938,192.1247 C1245.8836,193.251 1246.5358,194.4022 1247.1522,195.575 " fill="none" id="N1-to-NN" style="stroke:#181818;stroke-width:1.0;"/><polygon fill="#181818" points="1247.1522,195.575,1246.5056,185.7473,1244.8259,191.1491,1239.4242,189.4694,1247.1522,195.575" style="stroke:#181818;stroke-width:1.0;"/></g><!--MD5=[480e4e8b1f9b2ba2cf7c1832bf9b7f28]
link NN to N2--><g id="link_NN_N2"><path d="M1262.0643,302.5481 C1262.1414,302.778 1262.2189,303.0092 1262.2968,303.2416 C1262.6085,304.1711 1262.9269,305.1204 1263.2514,306.0881 C1268.4441,321.5725 1275.2281,341.8025 1282.0113,362.03 C1288.7944,382.2575 1295.5766,402.4825 1300.7655,417.9569 C1301.0898,418.924 1301.4079,419.8726 1301.7193,420.8015 C1301.7972,421.0337 1301.8747,421.2647 1301.9517,421.4944 " fill="none" id="NN-to-N2" style="stroke:#181818;stroke-width:1.0;"/><polygon fill="#181818" points="1301.9517,421.4944,1302.8829,411.6897,1300.3621,416.7538,1295.2979,414.2331,1301.9517,421.4944" style="stroke:#181818;stroke-width:1.0;"/></g><!--MD5=[06889e1e146506ec92ec3abf2fbe8076]
@startuml
allowmixing
'Mixed model of use case and object
package "eCTD Folder 3.2.S.1.0 Bundle" as NODES {
  node "DrugSubstanceStructure" as N21 { 
      object "Parent: DrugSubstance Profile" as obj22 {
        **ValueSets:**
        EVMPDSubstanceClassification
    }
     object "Base64DocumentReference" as obj64 {
      **Parent:** DocumentReferencee
} 

 obj22 *- - obj64
}
  node "EctdComposition32P10" as N1 { 
      object "Parent: Composition" as obj1 {
      **ValueSets:**
  Code system PQCMC Comp Section Types
    }
     object "SponsorOrganization" as objAu {
      **Parent:** Organization
    }
    obj1 *- - objAu
}
  
  node "DrugSubstanceNomenclature" as NN { 
      object "Parent: DrugSubstance" as obj3 {
        **ValueSets:**
        EVMPDSubstanceClassification  
      }
       object "Base64DocumentReference" as obj65 {
      **Parent:** DocumentReferencee
} 

 obj3 *- - obj654
}

node "PolymorphicForm" as N2 { 
      object "Parent: SubstanceDefinition" as obj2 {
        **ValueSets:**
       EVMPDSubstanceClassification
    }
     object "Base64DocumentReference" as obj664 {
      **Parent:** DocumentReferencee
} 

 obj2 *- - obj664
}

N1 - -> N2
N1 - -> N21
N1 - -> NN
NN - -> N2
@enduml

@startuml
allowmixing
package "eCTD Folder 3.2.S.1.0 Bundle" as NODES {
  node "DrugSubstanceStructure" as N21 { 
      object "Parent: DrugSubstance Profile" as obj22 {
        **ValueSets:**
        EVMPDSubstanceClassification
    }
     object "Base64DocumentReference" as obj64 {
      **Parent:** DocumentReferencee
} 

 obj22 *- - obj64
}
  node "EctdComposition32P10" as N1 { 
      object "Parent: Composition" as obj1 {
      **ValueSets:**
  Code system PQCMC Comp Section Types
    }
     object "SponsorOrganization" as objAu {
      **Parent:** Organization
    }
    obj1 *- - objAu
}
  
  node "DrugSubstanceNomenclature" as NN { 
      object "Parent: DrugSubstance" as obj3 {
        **ValueSets:**
        EVMPDSubstanceClassification  
      }
       object "Base64DocumentReference" as obj65 {
      **Parent:** DocumentReferencee
} 

 obj3 *- - obj654
}

node "PolymorphicForm" as N2 { 
      object "Parent: SubstanceDefinition" as obj2 {
        **ValueSets:**
       EVMPDSubstanceClassification
    }
     object "Base64DocumentReference" as obj664 {
      **Parent:** DocumentReferencee
} 

 obj2 *- - obj664
}

N1 - -> N2
N1 - -> N21
N1 - -> NN
NN - -> N2
@enduml

PlantUML version 1.2022.5(Sat Apr 30 06:55:52 EDT 2022)
(GPL source distribution)
Java Runtime: Java(TM) SE Runtime Environment
JVM: Java HotSpot(TM) 64-Bit Server VM
Default Encoding: Cp1252
Language: en
Country: US
--></g></svg>